<?xml version="1.0" encoding="UTF-8"?>
<svg version="1.1" xmlns="http://www.w3.org/2000/svg" width="512" height="512">
<path d="M0 0 C1.3413227 -0.00576181 2.6826375 -0.01370333 4.02393579 -0.02363622 C7.70871222 -0.04452546 11.39284188 -0.03418551 15.07762074 -0.01870513 C19.05180719 -0.00740382 23.02588152 -0.02484823 27.00004578 -0.03860474 C34.78497885 -0.06085481 42.56967109 -0.05602814 50.35461366 -0.04154153 C56.68074992 -0.03025622 63.00681861 -0.02871531 69.33296204 -0.03416061 C70.23283338 -0.03492678 71.13270471 -0.03569294 72.05984488 -0.03648233 C73.88783358 -0.03808093 75.71582225 -0.039702 77.5438109 -0.04134528 C94.69072429 -0.05560797 111.83750409 -0.03920193 128.98439556 -0.01234345 C143.70186285 0.00999581 158.41913296 0.00611583 173.13659668 -0.01693726 C190.22153582 -0.04368611 207.30635783 -0.05423462 224.39131498 -0.03887594 C226.21263343 -0.03728317 228.0339519 -0.03571131 229.85527039 -0.03416061 C231.19950639 -0.03300355 231.19950639 -0.03300355 232.57089868 -0.03182311 C238.89050012 -0.02750336 245.21002736 -0.03479857 251.52961731 -0.04655838 C259.22962541 -0.06057177 266.92937861 -0.05680802 274.62935746 -0.03015466 C278.55917144 -0.01700065 282.48856023 -0.01189061 286.4183712 -0.02840042 C290.01472003 -0.04328095 293.61024888 -0.03514461 297.20652312 -0.00851266 C299.12626882 -0.00026617 301.04607127 -0.01662272 302.96575785 -0.03379881 C311.28152921 0.06139829 311.28152921 0.06139829 315.33823395 2.9246006 C317.69078781 6.55591933 318.22120606 9.45774063 318.2076416 13.73357964 C318.20756576 14.54599141 318.20748991 15.35840318 318.20741177 16.1954335 C318.2022508 17.08238942 318.19708982 17.96934534 318.19177246 18.88317871 C318.19036035 19.82974716 318.18894823 20.77631562 318.18749332 21.75156796 C318.18176572 24.93129978 318.16906812 28.11096789 318.15661621 31.29067993 C318.15146416 33.56721888 318.14687467 35.84375915 318.14280701 38.12030029 C318.13373723 43.02684025 318.12243325 47.93336857 318.10995483 52.83990097 C318.09202784 60.59621986 318.09003132 68.35248928 318.09240723 76.10882568 C318.09277638 77.41715453 318.09314554 78.72548338 318.09352589 80.07345855 C318.09506682 84.78555288 318.0969312 89.49764703 318.09886098 94.2097412 C318.10077039 99.04922077 318.10201614 103.8887 318.10241699 108.72817993 C318.10248131 109.41816669 318.10254563 110.10815345 318.1026119 110.8190489 C318.10276791 122.00193603 318.0740823 133.18458511 318.03568196 144.36739813 C317.99699876 155.85087233 317.99315523 167.33388966 318.01895714 178.81742299 C318.03222305 185.26439994 318.02924189 191.71046762 317.98791504 198.15734482 C317.94938007 204.22015502 317.95259807 210.28149546 317.98803902 216.34431076 C317.99359149 218.57036468 317.98371382 220.79651807 317.95734978 223.02242279 C317.92363344 226.06096245 317.94518078 229.09428422 317.98059082 232.13269043 C317.95758408 233.01518491 317.93457733 233.89767938 317.91087341 234.80691612 C317.97615531 237.37479424 318.13084318 239.24944012 319.09411621 241.63491821 C321.21337094 243.56008986 323.31315245 244.90541429 325.82882023 246.26585591 C331.48699304 249.68544927 334.40211334 255.43567375 336.09411621 261.63491821 C336.38133691 264.76467741 336.3769848 267.87953652 336.36827087 271.02084351 C336.37350755 271.95813144 336.37874423 272.89541937 336.3841396 273.86110997 C336.39912545 276.99767012 336.39984445 280.13406693 336.4005127 283.2706604 C336.40813514 285.52130407 336.41656278 287.77194513 336.42573547 290.02258301 C336.44767928 296.13427951 336.45647928 302.24592598 336.46156192 308.35765743 C336.4652057 312.17733033 336.4714459 315.99699012 336.47856331 319.81665802 C336.49801618 330.40257413 336.51453111 340.98847936 336.51743984 351.5744133 C336.51762741 352.25123754 336.51781498 352.92806178 336.51800824 353.62539585 C336.51837447 354.99734259 336.51873817 356.36928932 336.51909935 357.74123606 C336.51928216 358.42222539 336.51946497 359.10321472 336.51965332 359.80484009 C336.51992414 360.82757801 336.51992414 360.82757801 336.52020044 361.87097731 C336.52374096 372.91522151 336.55075825 383.95927059 336.58815121 395.00344715 C336.6262785 406.35580709 336.64515702 417.70803881 336.64589936 429.06047559 C336.64669202 435.42906945 336.65542647 441.79741151 336.68389702 448.16594696 C336.71008493 454.1578643 336.71227833 460.1493212 336.69624138 466.14126968 C336.69442748 468.33661275 336.70111212 470.53198233 336.71706009 472.72726822 C336.80510191 485.63670055 336.8382118 495.45880044 327.84411621 505.50991821 C319.39568163 512.99298335 310.54440754 513.21421934 299.72877502 513.14958191 C298.16895325 513.15491224 296.60913661 513.16198073 295.0493297 513.17062896 C290.77906397 513.18921874 286.50914592 513.18296403 282.23886597 513.17247593 C277.62730733 513.16547351 273.01581936 513.18148976 268.40428162 513.19447327 C259.37631752 513.21610098 250.34847954 513.21598952 241.32049806 513.20784772 C233.98192222 513.20154461 226.64338312 513.20268762 219.30480766 513.2091198 C218.25982775 513.21002145 217.21484784 513.21092311 216.13820187 513.21185208 C214.01524698 513.21370331 211.8922921 513.21556587 209.76933723 513.21743964 C189.86727056 513.23401382 169.9652748 513.22530213 150.06321239 513.20845407 C131.8607396 513.19375736 113.65843189 513.2083858 95.45598037 513.23722423 C76.75844396 513.26662608 58.06098371 513.2775882 39.3634252 513.26804203 C37.24803032 513.26701949 35.13263543 513.26602488 33.01724052 513.26505852 C31.45608302 513.26434393 31.45608302 513.26434393 29.86338698 513.26361491 C22.53569133 513.26145183 15.20806789 513.27124922 7.88038826 513.28582954 C-1.05270402 513.30335654 -9.98558585 513.30323018 -18.91866987 513.28047789 C-23.4749247 513.26933911 -28.03080881 513.26616495 -32.58704758 513.28477859 C-36.76139499 513.30161245 -40.9350492 513.29519342 -45.10935194 513.27056181 C-46.61597733 513.26568761 -48.12265895 513.26916943 -49.62923717 513.28204925 C-60.41785179 513.36759518 -68.59486881 511.81270645 -76.78088379 504.38491821 C-83.37647336 497.16541321 -84.49511225 489.55441388 -84.42054749 480.06596375 C-84.42749301 478.93010202 -84.43443854 477.7942403 -84.44159454 476.62395853 C-84.45983174 472.83322021 -84.44960876 469.04311002 -84.43933105 465.25234985 C-84.44419928 462.52835051 -84.45500029 459.80438148 -84.46543884 457.08039856 C-84.48703654 450.458768 -84.48696287 443.83730958 -84.4788133 437.21565539 C-84.47250323 431.83169019 -84.47365954 426.44777504 -84.48008537 421.06381035 C-84.48098703 420.29636656 -84.48188868 419.52892278 -84.48281766 418.73822312 C-84.48466894 417.17896822 -84.4865315 415.61971334 -84.48840522 414.06045847 C-84.50496897 399.45189503 -84.49627666 384.84342828 -84.47941964 370.23487066 C-84.46472422 356.88227015 -84.47935132 343.5298947 -84.5081898 330.17732317 C-84.53761193 316.4518348 -84.54854787 302.7264502 -84.5390076 289.00093168 C-84.5379851 287.44723509 -84.53699049 285.89353847 -84.53602409 284.33984184 C-84.5355477 283.5754812 -84.53507131 282.81112056 -84.53458049 282.02359747 C-84.53242006 276.64955746 -84.54220062 271.27561612 -84.55679512 265.90159798 C-84.57434726 259.34733642 -84.57416006 252.79336168 -84.55144347 246.23911125 C-84.54032667 242.89785334 -84.53979972 239.55751414 -84.55574417 236.21621323 C-84.57168929 232.58728125 -84.55670704 228.95972381 -84.53407288 225.33085632 C-84.5459086 224.28444019 -84.55774433 223.23802405 -84.56993872 222.15989834 C-84.44452522 212.23806562 -80.81101183 204.99042005 -73.84729004 198.00991821 C-71.36184137 196.24960045 -68.79481024 195.55223995 -65.90588379 194.63491821 C-65.90864917 193.97138556 -65.91141455 193.30785292 -65.91426373 192.62421322 C-65.98056914 176.46546846 -66.03018651 160.30676689 -66.0613203 144.14791775 C-66.07677726 136.3335576 -66.09784431 128.51928836 -66.13220215 120.70498657 C-66.16214046 113.8925977 -66.18146731 107.08027468 -66.18814927 100.26782185 C-66.19205405 96.66196448 -66.20120618 93.05629547 -66.22307396 89.45049858 C-66.24731035 85.42131127 -66.24785094 81.39244971 -66.24645996 77.3631897 C-66.25724579 76.17276062 -66.26803162 74.98233154 -66.27914429 73.75582886 C-66.25626921 67.63511238 -66.04627201 62.96777177 -62.90588379 57.63491821 C-59.81532424 55.57454518 -59.19662217 55.38692579 -55.70983887 55.40786743 C-54.44887138 55.40809402 -54.44887138 55.40809402 -53.16242981 55.4083252 C-51.8076075 55.42380905 -51.8076075 55.42380905 -50.42541504 55.43960571 C-49.03343147 55.44385056 -49.03343147 55.44385056 -47.61332703 55.44818115 C-44.648215 55.45937985 -41.68340458 55.48448387 -38.71838379 55.50991821 C-36.70862253 55.51994841 -34.69885653 55.52907419 -32.68908691 55.53726196 C-27.76123626 55.55931817 -22.83361117 55.59384592 -17.90588379 55.63491821 C-17.91698685 55.01961746 -17.9280899 54.40431671 -17.93952942 53.77037048 C-18.05019876 47.36281865 -18.12558259 40.95553853 -18.18054199 34.54727173 C-18.20567693 32.15620902 -18.23979012 29.76522307 -18.28308105 27.37442017 C-18.3437744 23.93632057 -18.37210451 20.49923725 -18.39416504 17.06069946 C-18.41997147 15.99281693 -18.44577789 14.92493439 -18.47236633 13.82469177 C-18.47274399 12.82403183 -18.47312164 11.82337189 -18.47351074 10.79238892 C-18.4846138 9.91524734 -18.49571686 9.03810577 -18.50715637 8.13438416 C-17.83933212 5.35826561 -16.86348634 3.67124951 -14.78702515 1.70244306 C-10.40785976 -0.78268005 -4.88535793 -0.04371097 0 0 Z M3.09411621 20.63491821 C3.09411621 32.18491821 3.09411621 43.73491821 3.09411621 55.63491821 C6.30716995 55.64522568 9.52022369 55.65553314 12.8306427 55.66615295 C42.27436823 55.76106584 71.71807306 55.86087179 101.16176369 55.96603515 C105.01836479 55.97980523 108.87496604 55.99353225 112.73156738 56.00723267 C113.88326898 56.01132512 113.88326898 56.01132512 115.05823728 56.01550025 C127.50103242 56.05961173 139.94383664 56.1002328 152.38664768 56.13957082 C165.14790614 56.17999306 177.9091477 56.22415027 190.67038125 56.27179676 C198.54887897 56.30109425 206.4273754 56.3274556 214.30589511 56.35009719 C220.34048945 56.36775119 226.37505258 56.39059402 232.40962219 56.41540909 C234.89008181 56.42478777 237.37054852 56.43246009 239.85101891 56.43833733 C243.22626124 56.44658461 246.60142484 56.46085748 249.97663879 56.47669983 C250.96787398 56.47767794 251.95910917 56.47865604 252.98038179 56.47966379 C253.8815876 56.48513823 254.7827934 56.49061268 255.71130848 56.49625301 C256.88065724 56.50024008 256.88065724 56.50024008 258.0736292 56.50430769 C260.09411621 56.63491821 260.09411621 56.63491821 263.09411621 57.63491821 C264.2794736 61.19099037 264.23393775 64.03562974 264.25233459 67.79121399 C264.25727257 68.52473314 264.26221055 69.25825228 264.26729816 70.01399928 C264.28268854 72.47837555 264.29103795 74.94272573 264.29943848 77.40713501 C264.30901579 79.17110423 264.31902578 80.93507115 264.32943726 82.69903564 C264.35650828 87.49414491 264.37750595 92.28926403 264.39743924 97.08440757 C264.41928524 102.09327228 264.44668071 107.10210652 264.47349548 112.11094666 C264.52344113 121.59876772 264.56837302 131.08660569 264.61151785 140.57445985 C264.66087423 151.37482773 264.71579828 162.17516502 264.77119744 172.97550333 C264.88504623 195.19527997 264.99168147 217.41508627 265.09411621 239.63491821 C275.65411621 239.63491821 286.21411621 239.63491821 297.09411621 239.63491821 C297.09411621 167.36491821 297.09411621 95.09491821 297.09411621 20.63491821 C200.07411621 20.63491821 103.05411621 20.63491821 3.09411621 20.63491821 Z M-44.90588379 75.63491821 C-44.90588379 114.24491821 -44.90588379 152.85491821 -44.90588379 192.63491821 C-11.12984479 192.80532785 -11.12984479 192.80532785 22.6463623 192.93276978 C29.20275879 192.97817993 29.20275879 192.97817993 32.27932739 193.00448608 C34.41218427 193.01902901 36.54510266 193.02586887 38.67800903 193.02645874 C41.92307555 193.02889063 45.16710232 193.05633953 48.4119873 193.08901978 C49.35031591 193.0839957 50.28864452 193.07897163 51.25540733 193.07379532 C59.76609378 193.207225 67.88821599 195.54187885 74.09411621 201.63491821 C80.00112282 209.04325648 83.10967699 217.32920488 85.96911621 226.25991821 C86.7352218 228.58613949 87.50333575 230.91170065 88.27380371 233.23648071 C88.60106445 234.2504895 88.9283252 235.26449829 89.26550293 236.30923462 C89.88226196 238.56598781 89.88226196 238.56598781 91.09411621 239.63491821 C93.06839855 239.73160702 95.04619452 239.75678896 97.02284241 239.75517273 C98.30888902 239.75655023 99.59493563 239.75792772 100.91995335 239.75934696 C102.36415694 239.75579969 103.80836031 239.75216179 105.25256348 239.7484436 C106.78456844 239.7481375 108.31657355 239.74827037 109.84857845 239.74880886 C113.96533566 239.74903538 118.08206402 239.74322362 122.19881439 239.73619843 C126.0564534 239.73051947 129.91408525 239.73023618 133.77172852 239.72952271 C145.06669493 239.72426745 156.36165593 239.7103064 167.65661621 239.69741821 C192.88099121 239.67679321 218.10536621 239.65616821 244.09411621 239.63491821 C244.09411621 185.51491821 244.09411621 131.39491821 244.09411621 75.63491821 C148.72411621 75.63491821 53.35411621 75.63491821 -44.90588379 75.63491821 Z M-61.65588379 216.00991821 C-64.00967044 219.06984086 -64.03118112 222.45448122 -64.03451824 226.20489407 C-64.03774269 227.12242441 -64.04096713 228.03995475 -64.04428929 228.98528904 C-64.04274069 229.98965553 -64.04119209 230.99402202 -64.03959656 232.02882385 C-64.04186211 233.09860444 -64.04412767 234.16838503 -64.04646188 235.27058321 C-64.05280893 238.86721812 -64.05197206 242.46381542 -64.05114746 246.06045532 C-64.05413848 248.6341812 -64.05754088 251.20790663 -64.06132507 253.78163147 C-64.06963243 260.05396962 -64.07237994 266.32629837 -64.07293745 272.59864157 C-64.07341252 277.69623586 -64.07546681 282.79382705 -64.07863808 287.89142036 C-64.08744446 302.34089347 -64.09205741 316.79035915 -64.0913076 331.23983496 C-64.09126765 332.01885257 -64.09122769 332.79787018 -64.09118652 333.60049438 C-64.09114564 334.3804619 -64.09110476 335.16042941 -64.09106264 335.9640323 C-64.09065606 348.60893871 -64.10022882 361.25381536 -64.11432489 373.89871316 C-64.12868116 386.87931851 -64.1355955 399.85990934 -64.13473111 412.84052283 C-64.13439891 420.12942706 -64.13715626 427.41830009 -64.14790916 434.70719719 C-64.15795382 441.55994445 -64.1576865 448.41262467 -64.15039253 455.26537514 C-64.14934362 457.78370637 -64.15172762 460.30204166 -64.15775299 462.82036591 C-64.16543252 466.25166546 -64.16085485 469.68273459 -64.15312195 473.11402893 C-64.15826551 474.1161647 -64.16340907 475.11830047 -64.1687085 476.15080398 C-64.1414908 481.5965879 -64.02243189 485.94112972 -60.53088379 490.38491821 C-57.04587848 493.06569152 -53.01709844 492.76082424 -48.77417088 492.76355267 C-47.50830098 492.76677711 -46.24243108 492.77000156 -44.93820149 492.77332371 C-43.5306647 492.77185253 -42.12312801 492.77028481 -40.71559143 492.76863098 C-39.22252436 492.7704987 -37.72945777 492.77279925 -36.23639196 492.7754963 C-32.12770713 492.78162545 -28.01904262 492.7814794 -23.91035426 492.78030193 C-19.48151816 492.78009821 -15.05268864 492.78561393 -10.62385559 492.7903595 C-1.94517105 492.79867248 6.73350671 492.80141462 15.4121949 492.80197188 C22.46440393 492.80244668 29.51661072 492.80449967 36.56881905 492.8076725 C56.55204456 492.81648047 76.53526469 492.8210916 96.51849215 492.82034203 C97.59620932 492.82030207 98.67392649 492.82026211 99.78430176 492.82022095 C100.86333075 492.82018007 101.94235974 492.82013919 103.05408657 492.82009707 C120.54888428 492.81969045 138.04366048 492.8292636 155.53845196 492.84335931 C173.49111128 492.85771012 191.4437601 492.86463023 209.39642531 492.86376554 C219.47989374 492.86343314 229.56333962 492.86619886 239.6468029 492.87694359 C248.23058747 492.88603152 256.81433925 492.8882379 265.39812654 492.88143416 C269.77944821 492.87816044 274.16070694 492.87814292 278.54202271 492.88678741 C282.55079626 492.8946157 286.55945657 492.89325882 290.56822724 492.88450328 C292.02040825 492.88296017 293.47259756 492.88481478 294.9247688 492.89036336 C296.89535525 492.89739558 298.86597611 492.89095143 300.83656216 492.88380718 C301.93216534 492.88402455 303.02776852 492.88424192 304.15657181 492.88446587 C307.95468259 492.56181214 310.84010968 491.62020906 313.84411621 489.25991821 C316.94657519 485.22672154 316.23970672 479.92679356 316.23455811 475.07673645 C316.23752923 474.20437751 316.24050035 473.33201856 316.24356151 472.4332245 C316.25224613 469.50459645 316.25375655 466.57600929 316.25524902 463.64736938 C316.25987733 461.54978854 316.26490201 459.45220854 316.27029419 457.35462952 C316.28341823 451.65209922 316.28986307 445.94958069 316.29430485 440.24703765 C316.29723533 436.6850333 316.30134008 433.12303217 316.30580902 429.56102943 C316.31948345 418.41831896 316.32915059 407.27561584 316.33301091 396.13289756 C316.33749283 383.26639601 316.35504723 370.40000063 316.38401151 357.53353137 C316.40561892 347.59032161 316.41571468 337.64714174 316.41705203 327.70390874 C316.41810065 321.76412934 316.42402083 315.82444976 316.44187164 309.88469505 C316.45833617 304.29754601 316.46051562 298.710572 316.45173264 293.12340736 C316.45096142 291.07355404 316.45531608 289.02369137 316.46519089 286.97386169 C316.47788848 284.17371602 316.47204538 281.37419229 316.46160889 278.5740509 C316.46966529 277.76450634 316.4777217 276.95496177 316.48602223 276.12088555 C316.44069214 270.91421796 315.66863558 267.20591684 313.09411621 262.63491821 C310.35230226 260.89511608 308.24385083 260.38516852 305.02389622 260.38717175 C304.21783454 260.38278975 303.41177285 260.37840775 302.58128506 260.37389296 C301.70142892 260.3792383 300.82157277 260.38458363 299.91505432 260.39009094 C298.50639395 260.38669408 298.50639395 260.38669408 297.0692758 260.3832286 C293.91480857 260.37792122 290.76053665 260.38677302 287.6060791 260.39541626 C285.34762 260.39430369 283.0891612 260.39224638 280.83070374 260.38931274 C275.96343949 260.38458572 271.09622345 260.38571564 266.22896004 260.39108849 C258.53590018 260.39868313 250.84293373 260.38806013 243.14988708 260.37388611 C232.36673041 260.35526259 221.58358411 260.34001207 210.80041504 260.33145142 C210.1161472 260.33090336 209.43187936 260.3303553 208.72687613 260.32979063 C197.63394082 260.32132827 186.54102977 260.32467117 175.44809432 260.33060577 C164.05848994 260.33622154 152.66903409 260.32239213 141.27945703 260.29305297 C133.62865757 260.27435859 125.97828262 260.27775555 118.32748997 260.29722059 C113.57117254 260.30408838 108.8150868 260.29017255 104.0588131 260.2702713 C101.85009652 260.26521182 99.6413414 260.26874018 97.43265533 260.2814045 C94.42124967 260.29744655 91.41149232 260.28292779 88.40016174 260.26069641 C87.52253632 260.27273391 86.6449109 260.28477141 85.74069077 260.29717368 C81.40087312 260.23167285 79.63612126 260.05697908 76.10710812 257.30892658 C73.74436711 254.1703202 72.48474804 251.06598953 71.34020996 247.35757446 C70.99881737 246.32412148 70.99881737 246.32412148 70.65052795 245.26979065 C69.92990838 243.08336306 69.22925573 240.89127595 68.53161621 238.69741821 C67.82836232 236.50793349 67.12061802 234.32024772 66.4019928 232.13575745 C65.95729318 230.78201668 65.52142368 229.42532999 65.09617615 228.06535339 C63.18174035 222.20265098 60.53041887 216.86272292 55.09411621 213.63491821 C52.21543485 212.7522792 49.62586627 212.50772917 46.62257385 212.50120544 C45.73240067 212.49694046 44.84222748 212.49267548 43.92507935 212.48828125 C42.95613739 212.48873444 41.98719543 212.48918762 40.9888916 212.48965454 C39.96246048 212.48629593 38.93602936 212.48293732 37.87849426 212.47947693 C34.48290805 212.46997205 31.08737116 212.46802412 27.69177246 212.46694946 C25.33292114 212.46373685 22.97407002 212.46037277 20.61521912 212.4568634 C15.66978493 212.4508735 10.72436822 212.44902339 5.77893066 212.44961548 C-0.5609004 212.44971716 -6.90061962 212.43605824 -13.24042416 212.41884327 C-18.11227433 212.40773088 -22.98409739 212.40569603 -27.85595894 212.4062252 C-30.19355213 212.4050442 -32.531146 212.40061569 -34.86872673 212.39289284 C-38.13631939 212.38310732 -41.40366815 212.38596529 -44.67126465 212.39199829 C-46.12164124 212.38356903 -46.12164124 212.38356903 -47.60131836 212.37496948 C-52.98336555 212.40024956 -57.26507408 212.5599963 -61.65588379 216.00991821 Z " fill="#000000" transform="translate(129.9058837890625,-0.634918212890625)"/>
<path d="M0 0 C0.96649979 0.35099258 1.93299957 0.70198517 2.92878723 1.06361389 C6.10429028 2.22026952 9.27275823 3.39502146 12.44140625 4.5703125 C14.65357517 5.38072096 16.86614664 6.19003134 19.07910156 6.99829102 C23.69910866 8.68817776 28.31616955 10.38579683 32.93115234 12.08935547 C39.94439002 14.67685174 46.96759149 17.23650422 53.9921875 19.79296875 C57.33501204 21.01185496 60.67752329 22.23159394 64.01980591 23.45196533 C66.16678741 24.23587948 68.3139822 25.01920974 70.46139526 25.80194092 C73.46132734 26.89677073 76.45943094 27.99646074 79.45703125 29.09765625 C80.33921829 29.41879898 81.22140533 29.73994171 82.13032532 30.07081604 C95.67704993 35.06524796 95.67704993 35.06524796 99.00390625 40.6953125 C99.47860069 44.49286799 99.3278681 46.90340575 97.87890625 50.4453125 C95.58759668 53.19488398 93.21151068 54.18278358 90.00390625 55.6953125 C90.00026062 56.42114532 89.99661499 57.14697815 89.99285889 57.89480591 C89.95491803 64.75090694 89.8979963 71.60661909 89.82000351 78.46237373 C89.78057322 81.98665291 89.74836343 85.51068391 89.73291016 89.03515625 C89.71480299 93.09155002 89.66483303 97.14701738 89.61328125 101.203125 C89.61205261 102.46271027 89.61082397 103.72229553 89.60955811 105.02005005 C89.42632073 115.99248756 89.42632073 115.99248756 85.00390625 120.6953125 C81.54651068 122.42401029 77.78415057 122.18498145 74.00390625 121.6953125 C71.13360756 119.90137582 69.51258987 118.71267974 68.00390625 115.6953125 C67.91350719 114.0305061 67.88635368 112.36207829 67.89038086 110.69482422 C67.89045639 109.65389618 67.89053192 108.61296814 67.89060974 107.54049683 C67.89577103 106.41338287 67.90093231 105.28626892 67.90625 104.125 C67.90837242 102.39795334 67.90837242 102.39795334 67.91053772 100.63601685 C67.91614909 96.94742264 67.92870355 93.25888845 67.94140625 89.5703125 C67.94641978 87.07421962 67.95098294 84.5781258 67.95507812 82.08203125 C67.96612222 75.95310441 67.98287145 69.82421274 68.00390625 63.6953125 C67.02808594 64.05625 66.05226563 64.4171875 65.046875 64.7890625 C63.76181056 65.25806412 62.47664921 65.72680029 61.19140625 66.1953125 C60.54880859 66.43378906 59.90621094 66.67226563 59.24414062 66.91796875 C56.35456886 67.96599996 54.10314564 68.6953125 51.00390625 68.6953125 C51.013899 69.52097214 51.013899 69.52097214 51.02409363 70.36331177 C51.09060147 76.10608056 51.1357708 81.84873945 51.16870117 87.59179688 C51.18376266 89.73344367 51.20421597 91.87505974 51.23022461 94.01660156 C51.26672353 97.09968661 51.28365927 100.18236288 51.296875 103.265625 C51.31235886 104.21897736 51.32784271 105.17232971 51.34379578 106.15457153 C51.34511942 111.41474054 51.03894932 115.18816941 48.00390625 119.6953125 C45.71807103 121.31591106 43.73208329 122.53656736 41.25390625 123.7578125 C40.26015991 124.26477661 40.26015991 124.26477661 39.24633789 124.78198242 C10.86740412 138.82561545 -22.1095777 140.43140107 -52.07226562 130.88623047 C-57.13136586 129.15208051 -61.95001864 126.99249898 -66.74609375 124.6328125 C-67.41398926 124.30450439 -68.08188477 123.97619629 -68.77001953 123.63793945 C-73.60976929 121.14460297 -77.23550789 118.97707009 -78.99609375 113.6953125 C-79.08259959 112.20686534 -79.11379548 110.71482993 -79.10961914 109.22387695 C-79.10954361 108.32316971 -79.10946808 107.42246246 -79.10939026 106.49446106 C-79.10422897 105.52562485 -79.09906769 104.55678864 -79.09375 103.55859375 C-79.09233505 102.56401657 -79.0909201 101.56943939 -79.08946228 100.54472351 C-79.08386136 97.36572268 -79.07130871 94.18679207 -79.05859375 91.0078125 C-79.05357887 88.85351664 -79.04901594 86.69921968 -79.04492188 84.54492188 C-79.03389163 79.26169476 -79.01715261 73.97850865 -78.99609375 68.6953125 C-80.23153931 68.53554932 -80.23153931 68.53554932 -81.49194336 68.37255859 C-85.5465423 67.58892747 -89.20548774 66.30676427 -93.0625 64.859375 C-93.81901352 64.57935638 -94.57552704 64.29933777 -95.35496521 64.01083374 C-96.94685443 63.42001912 -98.53774745 62.82651411 -100.12768555 62.23046875 C-102.55169192 61.32289661 -104.97962938 60.42651785 -107.40820312 59.53125 C-108.95988364 58.95379156 -110.5113243 58.37568811 -112.0625 57.796875 C-112.78345352 57.53113678 -113.50440704 57.26539856 -114.24720764 56.99160767 C-123.69656309 53.42802004 -123.69656309 53.42802004 -126.30859375 49.9453125 C-127.32425256 46.6213382 -127.41405861 44.15844988 -126.99609375 40.6953125 C-123.20019003 34.8725161 -119.16755192 33.08850459 -112.72265625 30.875 C-111.79064896 30.53782959 -110.85864166 30.20065918 -109.89839172 29.85327148 C-106.81198079 28.74125543 -103.71698193 27.6556351 -100.62109375 26.5703125 C-98.45585095 25.79744428 -96.29122889 25.02283508 -94.12719727 24.24658203 C-90.70472266 23.01991375 -87.28155641 21.79544169 -83.85566711 20.57833862 C-75.77973126 17.70775138 -67.73340501 14.76563648 -59.70040131 11.77773666 C-55.33072807 10.1537967 -50.95741433 8.53967077 -46.5848999 6.92340088 C-44.15940654 6.02456996 -41.73527788 5.12204739 -39.31256104 4.21575928 C-35.90805228 2.94414058 -32.49786298 1.68905742 -29.0859375 0.4375 C-27.57644279 -0.13303101 -27.57644279 -0.13303101 -26.03645325 -0.71508789 C-16.23121437 -4.27711117 -9.7164878 -3.64652628 0 0 Z M-22.19677734 20.34423828 C-23.18576019 20.70526642 -24.17474304 21.06629456 -25.19369507 21.43826294 C-26.77810898 22.03343216 -26.77810898 22.03343216 -28.39453125 22.640625 C-29.50228912 23.04811981 -30.610047 23.45561462 -31.75137329 23.87545776 C-35.29469963 25.18136216 -38.83287192 26.50064878 -42.37109375 27.8203125 C-44.71321726 28.68577426 -47.05566225 29.55036655 -49.3984375 30.4140625 C-61.27952798 34.80023998 -73.14346838 39.23280243 -84.99609375 43.6953125 C-82.51901075 46.1723955 -80.39229986 46.80232694 -77.09692383 48.00195312 C-75.85836136 48.45582397 -74.61979889 48.90969482 -73.34370422 49.37731934 C-71.98441299 49.86892318 -70.62505146 50.36033272 -69.265625 50.8515625 C-67.87262455 51.35915944 -66.47977895 51.86718153 -65.08708191 52.37561035 C-62.1637073 53.44152173 -59.23900903 54.50368823 -56.31323242 55.56298828 C-52.57678517 56.91590276 -48.84291669 58.27576375 -45.10992908 59.63819122 C-42.23063693 60.68859021 -39.35039437 61.73636132 -36.46982384 62.7832489 C-35.09382165 63.28344212 -33.71801611 63.78417665 -32.34241676 64.28547668 C-30.40991298 64.98902394 -28.47625478 65.6893008 -26.54223633 66.38867188 C-25.44462479 66.78679077 -24.34701324 67.18490967 -23.21614075 67.59509277 C-22.15352524 67.95816528 -21.09090973 68.32123779 -19.99609375 68.6953125 C-18.81503052 69.10188583 -17.63396729 69.50845917 -16.41711426 69.92735291 C-12.72476985 70.75622 -11.19916343 70.59897141 -7.71362305 69.28930664 C-6.73117111 68.93135513 -5.74871918 68.57340363 -4.73649597 68.2046051 C-3.69165543 67.80064011 -2.64681488 67.39667511 -1.5703125 66.98046875 C0.08208687 66.3685392 0.08208687 66.3685392 1.76786804 65.74424744 C5.2913786 64.43415868 8.8036411 63.09641066 12.31640625 61.7578125 C14.63669215 60.89076256 16.95765053 60.02550994 19.27929688 59.16210938 C31.89811265 54.45419767 44.46710052 49.61716956 57.00390625 44.6953125 C54.47000745 43.00604663 52.55028163 42.04943831 49.7421875 41.01879883 C48.45308472 40.54238701 48.45308472 40.54238701 47.13793945 40.05635071 C46.2068335 39.71677841 45.27572754 39.37720612 44.31640625 39.02734375 C43.34469482 38.6694426 42.3729834 38.31154144 41.37182617 37.9427948 C38.25052677 36.79411485 35.12726644 35.65087557 32.00390625 34.5078125 C28.94902754 33.38525119 25.89454633 32.2616132 22.84008789 31.13790894 C20.82694202 30.39850248 18.81310743 29.66096842 16.79858398 28.92532349 C12.01176515 27.1766435 7.234596 25.40919601 2.4765625 23.58349609 C1.61377686 23.25564621 0.75099121 22.92779633 -0.13793945 22.5900116 C-1.73985458 21.98006993 -3.33891136 21.36254162 -4.93432617 20.73579407 C-5.6482251 20.46550888 -6.36212402 20.19522369 -7.09765625 19.91674805 C-7.70947754 19.67957565 -8.32129883 19.44240326 -8.95166016 19.19804382 C-13.69129242 18.03255642 -17.68895109 18.67412112 -22.19677734 20.34423828 Z M-57.99609375 76.6953125 C-57.99609375 86.2653125 -57.99609375 95.8353125 -57.99609375 105.6953125 C-32.10501428 117.08738746 -5.21595503 119.55886435 21.57446289 109.34130859 C24.40591009 108.17726566 27.20177288 106.92825118 30.00390625 105.6953125 C30.00390625 96.1253125 30.00390625 86.5553125 30.00390625 76.6953125 C27.9053125 77.44296875 25.80671875 78.190625 23.64453125 78.9609375 C21.56927481 79.69934215 19.4938727 80.437336 17.41845703 81.17529297 C15.99675547 81.68105055 14.57520122 82.18722248 13.15380859 82.69384766 C12.46883301 82.93796387 11.78385742 83.18208008 11.078125 83.43359375 C10.39665405 83.67662231 9.71518311 83.91965088 9.01306152 84.17004395 C7.63973447 84.656575 6.26479497 85.13857777 4.88830566 85.61608887 C1.79486845 86.68967062 -1.2411049 87.79697384 -4.26757812 89.05273438 C-12.15539211 92.18624952 -17.10522118 91.55845516 -24.99609375 88.6953125 C-25.62529724 88.47313049 -26.25450073 88.25094849 -26.902771 88.02203369 C-31.86231655 86.26727891 -36.77480598 84.39904351 -41.68359375 82.5078125 C-43.87455828 81.6702393 -46.06623723 80.83458324 -48.25849915 80.00041199 C-49.61047018 79.48529965 -50.96156941 78.96789201 -52.31169128 78.44795227 C-55.07607609 77.21673424 -55.07607609 77.21673424 -57.99609375 76.6953125 Z " fill="#000000" transform="translate(269.99609375,309.3046875)"/>
<path d="M0 0 C0.91289675 -0.00367669 1.8257935 -0.00735338 2.76635379 -0.01114148 C5.84405326 -0.02220843 8.921719 -0.02602723 11.99943542 -0.02983093 C14.19848743 -0.03609325 16.39753837 -0.04273984 18.59658813 -0.04974365 C24.58421409 -0.06717359 30.57183204 -0.07771059 36.55947709 -0.08594918 C40.29734007 -0.09109451 44.03520054 -0.09717041 47.77306175 -0.10346031 C58.78859736 -0.12142316 69.80412836 -0.13580217 80.81967602 -0.14363671 C82.83597604 -0.14507523 84.85227605 -0.1465266 86.86857605 -0.147995 C87.5360312 -0.14847874 88.20348636 -0.14896248 88.89116742 -0.14946087 C99.70621415 -0.15776317 110.52115033 -0.18310329 121.33614878 -0.21557567 C132.43634654 -0.24863303 143.53649826 -0.26632371 154.63674659 -0.26985329 C160.87051275 -0.27220829 167.10410422 -0.28122733 173.33782387 -0.30631447 C179.20075323 -0.32952784 185.06339203 -0.33385551 190.92635536 -0.32355309 C193.08025578 -0.32305599 195.23417017 -0.32942721 197.38802719 -0.34310913 C200.32487307 -0.36072353 203.26066436 -0.35377332 206.19750977 -0.34057617 C207.48097572 -0.35703004 207.48097572 -0.35703004 208.79037029 -0.37381631 C212.8257468 -0.32992908 214.80505696 -0.15977071 218.29496288 2.05265522 C221.61010135 5.5344399 221.67859801 8.22909053 221.64860535 12.88545227 C221.07866169 16.47238031 219.08696986 18.01555996 216.28923035 20.14717102 C212.98331726 21.80012756 209.29568341 21.29512679 205.66111755 21.29434204 C204.75709347 21.29801873 203.8530694 21.30169542 202.92165065 21.30548352 C199.87392417 21.31655023 196.82623175 21.32036925 193.77848816 21.32417297 C191.60076285 21.33043535 189.42303861 21.33708195 187.24531555 21.34408569 C181.31547189 21.36151608 175.3856363 21.37205294 169.45577335 21.38029122 C165.75341462 21.3854369 162.05105842 21.39151282 158.34870148 21.39780235 C146.77189822 21.41685983 135.19510136 21.43108997 123.61828542 21.43941432 C111.57234331 21.44821828 99.52652823 21.46736326 87.4806366 21.50386047 C75.81966146 21.53907631 64.15876629 21.56045325 52.49773669 21.56419533 C46.32374164 21.56654931 40.14992307 21.57555497 33.97597504 21.60065651 C28.16803376 21.62388791 22.36038577 21.62819022 16.55241013 21.61789513 C14.4198929 21.61739846 12.28736147 21.62375722 10.15488815 21.63745117 C7.2446643 21.65509482 4.33550158 21.64810079 1.42527771 21.63491821 C0.58032848 21.64588746 -0.26462076 21.6568567 -1.13517451 21.66815835 C-6.44882642 21.61000233 -9.4990121 20.68785062 -13.71076965 17.14717102 C-15.43946744 13.68977545 -15.20043861 9.92741534 -14.71076965 6.14717102 C-10.69827829 -0.27281516 -7.07055978 -0.00151165 0 0 Z " fill="#000000" transform="translate(126.71076965332031,146.8528289794922)"/>
<path d="M0 0 C0.91289675 -0.00367669 1.8257935 -0.00735338 2.76635379 -0.01114148 C5.84405326 -0.02220843 8.921719 -0.02602723 11.99943542 -0.02983093 C14.19848743 -0.03609325 16.39753837 -0.04273984 18.59658813 -0.04974365 C24.58421409 -0.06717359 30.57183204 -0.07771059 36.55947709 -0.08594918 C40.29734007 -0.09109451 44.03520054 -0.09717041 47.77306175 -0.10346031 C58.78859736 -0.12142316 69.80412836 -0.13580217 80.81967602 -0.14363671 C82.83597604 -0.14507523 84.85227605 -0.1465266 86.86857605 -0.147995 C87.5360312 -0.14847874 88.20348636 -0.14896248 88.89116742 -0.14946087 C99.70621415 -0.15776317 110.52115033 -0.18310329 121.33614878 -0.21557567 C132.43634654 -0.24863303 143.53649826 -0.26632371 154.63674659 -0.26985329 C160.87051275 -0.27220829 167.10410422 -0.28122733 173.33782387 -0.30631447 C179.20075323 -0.32952784 185.06339203 -0.33385551 190.92635536 -0.32355309 C193.08025578 -0.32305599 195.23417017 -0.32942721 197.38802719 -0.34310913 C200.32487307 -0.36072353 203.26066436 -0.35377332 206.19750977 -0.34057617 C207.48097572 -0.35703004 207.48097572 -0.35703004 208.79037029 -0.37381631 C212.8257468 -0.32992908 214.80505696 -0.15977071 218.29496288 2.05265522 C221.60867027 5.53293688 221.68578101 8.22917688 221.64079285 12.88545227 C221.28923035 15.14717102 221.28923035 15.14717102 219.03923035 18.14717102 C214.1691119 21.68907535 209.39111514 21.29368036 203.53450012 21.28761292 C202.64101785 21.29058404 201.74753558 21.29355516 200.82697809 21.29661632 C197.82691862 21.30530219 194.82689906 21.30681146 191.826828 21.30830383 C189.6783642 21.31293202 187.52990123 21.31795668 185.38143921 21.323349 C179.54055071 21.33647342 173.6996737 21.34291784 167.85877275 21.34735966 C164.21101126 21.35028982 160.56325292 21.35439448 156.91549301 21.35886383 C145.50635054 21.37253779 134.09721527 21.3822054 122.68806517 21.38606572 C109.51026192 21.39054881 96.33256227 21.40810885 83.15479052 21.43706632 C72.97295723 21.45866525 62.79115312 21.46876902 52.60929716 21.47010684 C46.52590986 21.47115599 40.44261996 21.47708738 34.35925674 21.49492645 C28.63832559 21.51137655 22.91756538 21.51357749 17.19661903 21.50478745 C15.09635651 21.50401548 12.99608491 21.50838074 10.89584541 21.5182457 C8.02966816 21.53091943 5.16410061 21.52511321 2.29792786 21.5146637 C1.05005963 21.5267483 1.05005963 21.5267483 -0.22301805 21.53907704 C-5.10882078 21.49739003 -8.49475675 20.88636172 -12.71076965 18.14717102 C-15.38982695 14.12858507 -15.40687659 10.87075381 -14.71076965 6.14717102 C-10.69827829 -0.27281516 -7.07055978 -0.00151165 0 0 Z " fill="#000000" transform="translate(126.71076965332031,100.85282897949219)"/>
</svg>
